# xmcd
#
# Track frame offsets:
#	150
#	17320
#	34656
#	52260
#	66006
#	80049
#	94814
#	107356
#	122586
#	143572
#	156891
#	169927
#	184975
#	198737
#	215213
#	230244
#	245350
#	262705
#	278662
#
# Disc length: 3911 seconds
#
# Revision: 1
# Processed by: cddbd v1.5.2PL0 Copyright (c) Steve Scherf et al.
# Submitted via: audiograbber 1.83.01
#
DISCID=0e0f4513
DTITLE=Various Artist - Hott Country 172
DYEAR=2010
DGENRE=Country
TTITLE0=Lady Antebellum - Our Kind Of Love ( Single Edit )
TTITLE1=Johnny Reid - Today I'm Gonna try To Change The World
TTITLE2=Jason Blaine - Run With Me ( Radio Edit )
TTITLE3=One More Girl - The Day I Fall
TTITLE4=Jaron and The Long Road - Pray For You
TTITLE5=Higgins - Dreamers Like Us
TTITLE6=Alan Jackson - Hard Hat And A Hammer
TTITLE7=Chuck Wicks - Hold That Thought
TTITLE8=Ladies Of The Canyon - Haunted Women
TTITLE9=Billy Currington - Pretty Good At Drinkin' Beer
TTITLE10=Dudes - Mr Someone Else
TTITLE11=Jaydee Bixby - Tailgate ( Radio Edit )
TTITLE12=Emerson Drive - That Kind Of Beautiful
TTITLE13=Jewel - Satisfied
TTITLE14=Montgomery Gentry - While You Were Still Young
TTITLE15=Jenette McCurdy - Not That Far Away
TTITLE16=Aaron Lines - The Trouble With California
TTITLE17=Troy Olsen - Summer Thing
TTITLE18=George Jones - he Stopped Loving Her Today ( 1980 )
EXTD=June 2010
EXTT0=
EXTT1=
EXTT2=
EXTT3=
EXTT4=
EXTT5=
EXTT6=
EXTT7=
EXTT8=
EXTT9=
EXTT10=
EXTT11=
EXTT12=
EXTT13=
EXTT14=
EXTT15=
EXTT16=
EXTT17=
EXTT18=
PLAYORDER=
